<?xml version="1.0" encoding="utf-8"?>
<!-- Generator: Adobe Illustrator 25.0.0, SVG Export Plug-In . SVG Version: 6.00 Build 0)  -->
<svg version="1.1" id="Layer_1" xmlns="http://www.w3.org/2000/svg" xmlns:xlink="http://www.w3.org/1999/xlink" x="0px" y="0px"
	 width="183.2px" height="88.4px" viewBox="0 0 183.2 88.4" style="enable-background:new 0 0 183.2 88.4;" xml:space="preserve">
<style type="text/css">
	.st0{fill:#4FAD3B;}
	.st1{fill:#1E1B2D;}
	.st2{clip-path:url(#SVGID_2_);}
	.st3{fill:#F1AC00;}
	.st4{clip-path:url(#SVGID_4_);}
	.st5{fill-rule:evenodd;clip-rule:evenodd;fill:#1E1B2D;}
</style>
<g>
	<g>
		<path class="st0" d="M2.3,64.8C2.3,64.8,2.3,64.8,2.3,64.8l2.6,0c0,0,0.1,0,0.1,0c0,0,0,0.1,0,0.1v1.2c0,0,0,0.1,0,0.1
			c0,0,0,0-0.1,0H0.2c0,0-0.1,0-0.1,0c0,0,0,0,0-0.1V65c0-0.1,0-0.1,0.1-0.1C0.5,64.5,1,64,1.7,63.3l0.6-0.6
			c0.6-0.6,0.9-1.1,0.9-1.3c0-0.2-0.1-0.3-0.2-0.5c-0.1-0.1-0.3-0.2-0.6-0.2c-0.2,0-0.4,0.1-0.6,0.2c-0.1,0.1-0.2,0.3-0.2,0.5v0.2
			c0,0,0,0.1,0,0.1c0,0-0.1,0-0.1,0H0.1c0,0-0.1,0-0.1,0c0,0,0-0.1,0-0.1v-0.5c0-0.4,0.1-0.7,0.4-1c0.2-0.3,0.5-0.5,0.9-0.6
			c0.4-0.1,0.8-0.2,1.2-0.2c0.5,0,0.9,0.1,1.3,0.3c0.4,0.2,0.7,0.4,0.9,0.7c0.2,0.3,0.3,0.6,0.3,1c0,0.3-0.1,0.5-0.2,0.8
			c-0.1,0.3-0.3,0.6-0.6,0.9c-0.2,0.2-0.4,0.4-0.6,0.7c-0.2,0.2-0.6,0.5-1,0.9L2.3,64.8C2.3,64.8,2.3,64.8,2.3,64.8z"/>
		<path class="st0" d="M6.4,65.7c-0.4-0.4-0.7-1-0.7-1.7v-2.4c0-0.7,0.2-1.3,0.7-1.7c0.4-0.4,1.1-0.6,1.8-0.6c0.8,0,1.4,0.2,1.8,0.6
			c0.4,0.4,0.7,1,0.7,1.7V64c0,0.7-0.2,1.3-0.7,1.7c-0.4,0.4-1.1,0.6-1.8,0.6C7.4,66.4,6.8,66.1,6.4,65.7z M8.8,64.7
			C9,64.6,9,64.4,9,64.1v-2.5c0-0.3-0.1-0.5-0.2-0.6c-0.2-0.2-0.4-0.2-0.6-0.2c-0.2,0-0.4,0.1-0.6,0.2c-0.1,0.2-0.2,0.4-0.2,0.6v2.5
			c0,0.3,0.1,0.5,0.2,0.6C7.8,64.9,8,65,8.2,65C8.5,65,8.7,64.9,8.8,64.7z"/>
		<path class="st0" d="M13.7,64.8C13.7,64.8,13.7,64.8,13.7,64.8l2.6,0c0,0,0.1,0,0.1,0c0,0,0,0.1,0,0.1v1.2c0,0,0,0.1,0,0.1
			c0,0-0.1,0-0.1,0h-4.7c0,0-0.1,0-0.1,0c0,0,0,0,0-0.1V65c0-0.1,0-0.1,0.1-0.1c0.4-0.4,0.9-0.9,1.6-1.6l0.6-0.6
			c0.6-0.6,0.9-1.1,0.9-1.3c0-0.2-0.1-0.3-0.2-0.5c-0.1-0.1-0.3-0.2-0.6-0.2c-0.2,0-0.4,0.1-0.5,0.2c-0.1,0.1-0.2,0.3-0.2,0.5v0.2
			c0,0,0,0.1,0,0.1c0,0-0.1,0-0.1,0h-1.4c0,0-0.1,0-0.1,0c0,0,0-0.1,0-0.1v-0.5c0-0.4,0.2-0.7,0.4-1c0.2-0.3,0.5-0.5,0.9-0.6
			c0.4-0.1,0.8-0.2,1.2-0.2c0.5,0,0.9,0.1,1.3,0.3c0.4,0.2,0.7,0.4,0.9,0.7c0.2,0.3,0.3,0.6,0.3,1c0,0.3-0.1,0.5-0.2,0.8
			c-0.1,0.3-0.3,0.6-0.6,0.9c-0.2,0.2-0.4,0.4-0.6,0.7c-0.2,0.2-0.6,0.5-1,0.9L13.7,64.8C13.7,64.8,13.7,64.8,13.7,64.8z"/>
		<path class="st0" d="M21.8,64c0,0.4-0.1,0.7-0.2,1c-0.2,0.4-0.5,0.8-0.9,1c-0.4,0.2-0.9,0.4-1.4,0.4c-0.5,0-1-0.1-1.4-0.4
			c-0.4-0.3-0.7-0.6-0.9-1c-0.1-0.3-0.2-0.5-0.2-0.9c0-0.1,0-0.1,0.1-0.1h1.4c0.1,0,0.1,0,0.1,0.1c0,0.2,0.1,0.3,0.1,0.5
			c0.1,0.1,0.1,0.2,0.2,0.3c0.1,0.1,0.2,0.1,0.4,0.1c0.3,0,0.5-0.1,0.6-0.4c0.1-0.2,0.1-0.4,0.1-0.6c0-0.3,0-0.5-0.1-0.7
			c-0.1-0.2-0.4-0.4-0.6-0.4c-0.1,0-0.2,0-0.2,0.1c-0.1,0-0.2,0.1-0.3,0.2c0,0-0.1,0-0.1,0c0,0-0.1,0-0.1-0.1l-0.7-1
			c0,0,0-0.1,0-0.1c0,0,0-0.1,0.1-0.1l1.5-1.1c0,0,0,0,0,0c0,0,0,0,0,0h-2.2c0,0-0.1,0-0.1,0c0,0,0-0.1,0-0.1v-1.2c0,0,0-0.1,0-0.1
			c0,0,0.1,0,0.1,0h4.4c0,0,0.1,0,0.1,0c0,0,0,0,0,0.1v1.3c0,0.1,0,0.1-0.1,0.1l-1.2,0.9c0,0,0,0,0,0c0,0,0,0,0,0
			c0.5,0.1,0.9,0.5,1.2,1C21.7,63.3,21.8,63.6,21.8,64z"/>
		<path class="st0" d="M22.4,67.1l0.3-2.3c0-0.1,0-0.1,0.1-0.1h1.2c0.1,0,0.1,0,0.1,0.1l-0.6,2.4c0,0.1-0.1,0.1-0.1,0.1h-0.9
			C22.5,67.3,22.4,67.2,22.4,67.1z"/>
		<path class="st0" d="M28.4,66c-0.4-0.2-0.7-0.5-0.9-0.9c-0.2-0.4-0.3-0.8-0.3-1.3v-2.1c0-0.5,0.1-0.9,0.3-1.3
			c0.2-0.4,0.5-0.7,0.9-0.9c0.4-0.2,0.9-0.3,1.4-0.3c0.5,0,1,0.1,1.4,0.3c0.4,0.2,0.7,0.5,0.9,0.8c0.2,0.3,0.3,0.8,0.3,1.2
			c0,0,0,0.1,0,0.1c0,0-0.1,0-0.1,0L31,61.8c-0.1,0-0.1,0-0.1-0.1c0-0.3-0.1-0.5-0.3-0.7c-0.2-0.2-0.4-0.3-0.7-0.3
			c-0.3,0-0.6,0.1-0.7,0.3c-0.2,0.2-0.3,0.4-0.3,0.7v2.2c0,0.3,0.1,0.5,0.3,0.7c0.2,0.2,0.4,0.3,0.7,0.3c0.3,0,0.6-0.1,0.7-0.3
			c0.2-0.2,0.3-0.4,0.3-0.7c0-0.1,0-0.1,0.1-0.1l1.4,0.1c0,0,0.1,0,0.1,0c0,0,0,0,0,0.1c0,0.5-0.1,0.9-0.3,1.2
			c-0.2,0.4-0.5,0.6-0.9,0.8c-0.4,0.2-0.9,0.3-1.4,0.3C29.3,66.3,28.8,66.2,28.4,66z"/>
		<path class="st0" d="M37.6,66.1l-0.3-0.9c0,0,0,0-0.1,0H35c0,0,0,0,0,0l-0.3,0.9c0,0.1-0.1,0.1-0.1,0.1H33c0,0-0.1,0-0.1,0
			c0,0,0-0.1,0-0.1l2.1-6.6c0-0.1,0.1-0.1,0.1-0.1h1.9c0.1,0,0.1,0,0.1,0.1l2.2,6.6c0,0,0,0,0,0c0,0.1,0,0.1-0.1,0.1h-1.5
			C37.7,66.2,37.6,66.2,37.6,66.1z M35.4,64h1.5c0,0,0.1,0,0-0.1l-0.8-2.5c0,0,0,0,0,0c0,0,0,0,0,0L35.4,64C35.4,64,35.4,64,35.4,64
			z"/>
		<path class="st0" d="M40.2,66.2C40.1,66.2,40.1,66.2,40.2,66.2l0-6.7c0,0,0-0.1,0-0.1c0,0,0.1,0,0.1,0h1.4c0,0,0.1,0,0.1,0
			c0,0,0,0,0,0.1v5.3c0,0,0,0.1,0.1,0.1H45c0,0,0.1,0,0.1,0c0,0,0,0.1,0,0.1v1.2c0,0,0,0.1,0,0.1c0,0-0.1,0-0.1,0L40.2,66.2
			C40.2,66.2,40.2,66.2,40.2,66.2z"/>
		<path class="st0" d="M45.9,66.2C45.9,66.2,45.9,66.2,45.9,66.2l0-6.7c0,0,0-0.1,0-0.1c0,0,0.1,0,0.1,0h1.4c0,0,0.1,0,0.1,0
			c0,0,0,0,0,0.1v6.6c0,0,0,0.1,0,0.1c0,0-0.1,0-0.1,0L45.9,66.2C46,66.2,45.9,66.2,45.9,66.2z"/>
		<path class="st0" d="M49.7,66c-0.4-0.2-0.7-0.5-0.9-0.9c-0.2-0.4-0.3-0.8-0.3-1.3v-2.1c0-0.5,0.1-0.9,0.3-1.3
			c0.2-0.4,0.5-0.7,0.9-0.9c0.4-0.2,0.9-0.3,1.4-0.3c0.5,0,1,0.1,1.4,0.3c0.4,0.2,0.7,0.5,0.9,0.8c0.2,0.3,0.3,0.8,0.3,1.2
			c0,0,0,0.1,0,0.1c0,0-0.1,0-0.1,0l-1.4,0.1c-0.1,0-0.1,0-0.1-0.1c0-0.3-0.1-0.5-0.3-0.7c-0.2-0.2-0.4-0.3-0.7-0.3
			c-0.3,0-0.6,0.1-0.7,0.3c-0.2,0.2-0.3,0.4-0.3,0.7v2.2c0,0.3,0.1,0.5,0.3,0.7c0.2,0.2,0.4,0.3,0.7,0.3c0.3,0,0.6-0.1,0.7-0.3
			c0.2-0.2,0.3-0.4,0.3-0.7c0-0.1,0-0.1,0.1-0.1l1.4,0.1c0,0,0.1,0,0.1,0c0,0,0,0,0,0.1c0,0.5-0.1,0.9-0.3,1.2
			c-0.2,0.4-0.5,0.6-0.9,0.8c-0.4,0.2-0.9,0.3-1.4,0.3C50.6,66.3,50.1,66.2,49.7,66z"/>
		<path class="st0" d="M55.9,66c-0.4-0.2-0.7-0.5-0.9-0.8c-0.2-0.4-0.3-0.8-0.3-1.3v-4.4c0,0,0-0.1,0-0.1c0,0,0,0,0.1,0h1.4
			c0,0,0.1,0,0.1,0c0,0,0,0,0,0.1v4.4c0,0.3,0.1,0.6,0.3,0.7c0.2,0.2,0.4,0.3,0.7,0.3c0.3,0,0.5-0.1,0.7-0.3
			c0.2-0.2,0.3-0.4,0.3-0.7v-4.4c0,0,0-0.1,0-0.1c0,0,0.1,0,0.1,0h1.4c0,0,0.1,0,0.1,0c0,0,0,0,0,0.1v4.4c0,0.5-0.1,0.9-0.3,1.3
			c-0.2,0.4-0.5,0.6-0.9,0.8c-0.4,0.2-0.9,0.3-1.4,0.3C56.8,66.3,56.3,66.2,55.9,66z"/>
		<path class="st0" d="M66.1,59.4C66.1,59.4,66.1,59.5,66.1,59.4l0,1.2c0,0,0,0.1,0,0.1c0,0-0.1,0-0.1,0h-1.8c0,0-0.1,0-0.1,0v5.3
			c0,0,0,0.1,0,0.1c0,0-0.1,0-0.1,0h-1.4c0,0-0.1,0-0.1,0c0,0,0,0,0-0.1v-5.3c0,0,0,0-0.1,0h-1.7c0,0-0.1,0-0.1,0c0,0,0-0.1,0-0.1
			v-1.2c0,0,0-0.1,0-0.1c0,0,0.1,0,0.1,0L66.1,59.4C66,59.4,66,59.4,66.1,59.4z"/>
		<path class="st0" d="M0.2,76.8C0.2,76.8,0.1,76.7,0.2,76.8l0-6.7c0,0,0-0.1,0-0.1c0,0,0,0,0.1,0h1.4c0,0,0.1,0,0.1,0
			c0,0,0,0.1,0,0.1v2.5c0,0,0,0,0,0c0,0,0,0,0,0l2-2.6C3.9,70,4,70,4,70h1.6c0.1,0,0.1,0,0.1,0.1c0,0,0,0,0,0.1L3.6,73
			c0,0,0,0.1,0,0.1l2.3,3.7c0,0,0,0.1,0,0.1c0,0,0,0.1-0.1,0.1H4.1c-0.1,0-0.1,0-0.1-0.1l-1.6-2.6c0,0,0,0-0.1,0l-0.5,0.7
			c0,0,0,0,0,0.1v1.8c0,0,0,0.1,0,0.1c0,0-0.1,0-0.1,0L0.2,76.8C0.2,76.8,0.2,76.8,0.2,76.8z"/>
		<path class="st0" d="M11.4,71.3C11.4,71.4,11.4,71.4,11.4,71.3l-3.2,0c0,0-0.1,0-0.1,0.1v1.2c0,0,0,0.1,0.1,0.1h2c0,0,0.1,0,0.1,0
			c0,0,0,0.1,0,0.1v1.1c0,0,0,0.1,0,0.1c0,0-0.1,0-0.1,0h-2c0,0-0.1,0-0.1,0.1v1.3c0,0,0,0.1,0.1,0.1h3.2c0,0,0.1,0,0.1,0
			c0,0,0,0.1,0,0.1v1.2c0,0,0,0.1,0,0.1c0,0-0.1,0-0.1,0H6.6c0,0-0.1,0-0.1,0c0,0,0,0,0-0.1v-6.6c0,0,0-0.1,0-0.1c0,0,0,0,0.1,0h4.7
			c0,0,0.1,0,0.1,0c0,0,0,0.1,0,0.1L11.4,71.3C11.5,71.3,11.4,71.3,11.4,71.3z"/>
		<path class="st0" d="M15.9,76.7l-1.2-2.6c0,0,0,0-0.1,0H14c0,0,0,0,0,0v2.6c0,0,0,0.1,0,0.1c0,0-0.1,0-0.1,0h-1.4c0,0-0.1,0-0.1,0
			c0,0,0,0,0-0.1v-6.6c0,0,0-0.1,0-0.1c0,0,0.1,0,0.1,0h3c0.4,0,0.8,0.1,1.2,0.3c0.3,0.2,0.6,0.4,0.8,0.7c0.2,0.3,0.3,0.7,0.3,1.1
			c0,0.4-0.1,0.8-0.3,1.1c-0.2,0.3-0.5,0.6-0.9,0.7c0,0,0,0,0,0.1l1.3,2.7c0,0,0,0,0,0.1c0,0.1,0,0.1-0.1,0.1H16
			C16,76.8,15.9,76.8,15.9,76.7z M13.9,71.4v1.4c0,0,0,0,0,0h1.1c0.2,0,0.4-0.1,0.6-0.2c0.2-0.1,0.2-0.3,0.2-0.5
			c0-0.2-0.1-0.4-0.2-0.5c-0.2-0.1-0.4-0.2-0.6-0.2L13.9,71.4C13.9,71.4,13.9,71.4,13.9,71.4z"/>
		<path class="st0" d="M22.9,76.7l-0.3-0.9c0,0,0,0-0.1,0h-2.3c0,0,0,0,0,0L20,76.7c0,0.1-0.1,0.1-0.1,0.1h-1.5c0,0-0.1,0-0.1,0
			c0,0,0-0.1,0-0.1l2.1-6.6c0-0.1,0.1-0.1,0.1-0.1h1.9c0.1,0,0.1,0,0.1,0.1l2.2,6.6c0,0,0,0,0,0c0,0.1,0,0.1-0.1,0.1h-1.5
			C23,76.8,23,76.8,22.9,76.7z M20.7,74.6h1.5c0,0,0.1,0,0-0.1L21.5,72c0,0,0,0,0,0c0,0,0,0,0,0L20.7,74.6
			C20.7,74.6,20.7,74.6,20.7,74.6z"/>
		<path class="st0" d="M25.5,76.8C25.5,76.8,25.5,76.7,25.5,76.8l0-6.7c0,0,0-0.1,0-0.1c0,0,0.1,0,0.1,0H27c0,0,0.1,0,0.1,0
			c0,0,0,0.1,0,0.1v5.3c0,0,0,0.1,0.1,0.1h3.2c0,0,0.1,0,0.1,0c0,0,0,0.1,0,0.1v1.2c0,0,0,0.1,0,0.1c0,0-0.1,0-0.1,0L25.5,76.8
			C25.5,76.8,25.5,76.8,25.5,76.8z"/>
		<path class="st0" d="M35.7,76.7l-0.3-0.9c0,0,0,0-0.1,0h-2.3c0,0,0,0-0.1,0l-0.3,0.9c0,0.1-0.1,0.1-0.1,0.1h-1.5c0,0-0.1,0-0.1,0
			c0,0,0-0.1,0-0.1l2.1-6.6c0-0.1,0.1-0.1,0.1-0.1h1.9c0.1,0,0.1,0,0.1,0.1l2.2,6.6c0,0,0,0,0,0c0,0.1,0,0.1-0.1,0.1h-1.5
			C35.8,76.8,35.8,76.8,35.7,76.7z M33.5,74.6H35c0,0,0.1,0,0-0.1L34.3,72c0,0,0,0,0,0c0,0,0,0,0,0L33.5,74.6
			C33.5,74.6,33.5,74.6,33.5,74.6z"/>
	</g>
	<g>
		<g>
			<path class="st1" d="M133,52c-1.4-0.7-2.5-1.7-3.3-3c-0.8-1.3-1.2-2.7-1.2-4.3c0-1.6,0.4-3,1.2-4.3c0.8-1.3,1.9-2.3,3.3-3
				c1.4-0.7,3-1.1,4.8-1.1c1.8,0,3.4,0.4,4.8,1.1c1.4,0.7,2.5,1.7,3.3,3c0.8,1.3,1.2,2.7,1.2,4.3c0,1.6-0.4,3-1.2,4.3
				c-0.8,1.3-1.9,2.3-3.3,3c-1.4,0.7-3,1.1-4.8,1.1C136.1,53.1,134.5,52.7,133,52z M139.7,48.2c0.6-0.3,1-0.8,1.3-1.4
				c0.3-0.6,0.5-1.3,0.5-2.1c0-0.8-0.2-1.5-0.5-2.1c-0.3-0.6-0.8-1.1-1.3-1.4c-0.6-0.3-1.2-0.5-1.9-0.5c-0.7,0-1.3,0.2-1.9,0.5
				c-0.6,0.3-1,0.8-1.3,1.4c-0.3,0.6-0.5,1.3-0.5,2.1c0,0.8,0.2,1.5,0.5,2.1c0.3,0.6,0.8,1.1,1.3,1.4c0.6,0.3,1.2,0.5,1.9,0.5
				C138.5,48.7,139.1,48.6,139.7,48.2z"/>
			<path class="st1" d="M165.4,36.7v16.1h-4.6l-6.3-7.3v7.3h-5.4V36.7h4.6L160,44v-7.3H165.4z"/>
		</g>
	</g>
	<g>
		<path class="st1" d="M14.8,35.1l0-7.3l-3.6,5.9H8.7L5.1,28v7.1H0.1V19h4.6l5.4,8.6l5.2-8.6h4.6l0,16.1H14.8z"/>
		<path class="st1" d="M22.5,19h5.6v16.1h-5.6V19z"/>
		<path class="st1" d="M30.8,19h8.1c1.8,0,3.5,0.3,4.9,1c1.4,0.7,2.5,1.6,3.3,2.8c0.8,1.2,1.2,2.6,1.2,4.3c0,1.6-0.4,3.1-1.2,4.3
			c-0.8,1.2-1.9,2.1-3.3,2.8c-1.4,0.6-3,1-4.9,1h-8.1V19z M38.6,30.9c1.2,0,2.1-0.3,2.9-1c0.7-0.7,1.1-1.6,1.1-2.8
			c0-1.2-0.4-2.1-1.1-2.8c-0.7-0.7-1.7-1-2.9-1h-2.3v7.6H38.6z"/>
		<path class="st1" d="M0.1,37.8h8.1c1.8,0,3.5,0.3,4.9,1c1.4,0.7,2.5,1.6,3.3,2.8c0.8,1.2,1.2,2.6,1.2,4.3c0,1.6-0.4,3.1-1.2,4.3
			c-0.8,1.2-1.9,2.1-3.3,2.8c-1.4,0.7-3,1-4.9,1H0.1V37.8z M7.9,49.6c1.2,0,2.1-0.3,2.9-1c0.7-0.7,1.1-1.6,1.1-2.8
			c0-1.2-0.4-2.1-1.1-2.8c-0.7-0.7-1.7-1-2.9-1H5.6v7.6H7.9z"/>
		<path class="st1" d="M33.2,49.7v4.1H19.5V37.8h13.4v4.1H25v1.9h7v3.9h-7v2.1H33.2z"/>
		<path class="st1" d="M42.4,49.8h-1.5v4h-5.6V37.8h7.9c1.5,0,2.9,0.2,4,0.7c1.1,0.5,2,1.2,2.6,2.1c0.6,0.9,0.9,2,0.9,3.2
			c0,1.1-0.3,2.1-0.8,3c-0.5,0.9-1.3,1.5-2.3,2l3.5,5h-5.9L42.4,49.8z M44.6,42.4c-0.4-0.3-0.9-0.5-1.7-0.5h-2v3.8h2
			c0.8,0,1.3-0.2,1.7-0.5c0.4-0.3,0.6-0.8,0.6-1.4C45.2,43.2,45,42.8,44.6,42.4z"/>
		<path class="st1" d="M67.6,53.8l0-7.3L64,52.4h-2.4L58,46.7v7.1h-5.1V37.8h4.6l5.4,8.6l5.2-8.6h4.6l0,16.1H67.6z"/>
		<path class="st1" d="M86.6,51h-6.3l-1.1,2.8h-5.6l7.2-16.1h5.5l7.2,16.1h-5.7L86.6,51z M85.1,47.1l-1.6-4l-1.6,4H85.1z"/>
	</g>
	<g>
		<defs>
			<path id="SVGID_1_" d="M125.7,31.5c2-3.7,4.9-6.5,8.6-8.6c3.7-2,7.9-3,12.7-3c8.1,0,14.9,3.3,20.6,10L183.2,16
				c-4.2-5.2-9.6-9.2-16-11.9C160.8,1.4,153.7,0,145.7,0c-9.1,0-17.4,1.9-24.6,5.6c-7.3,3.8-13,9-17.1,15.7
				c-4,6.5-6.1,13.9-6.2,22.2h24.9C122.7,39,123.7,35,125.7,31.5z"/>
		</defs>
		<use xlink:href="#SVGID_1_"  style="overflow:visible;fill:#4FAD3B;"/>
		<clipPath id="SVGID_2_">
			<use xlink:href="#SVGID_1_"  style="overflow:visible;"/>
		</clipPath>
		<g class="st2">
			<path class="st3" d="M96.8,44.9V27h-7.7l11-5.1v-3h10.2v-4.4l22.5-13.2l19.4,11.3l-4.2,4.2L130,16.9l1.9,3l-7.2,4.3
				c0,0-4,2.1-4,11c0,8.9,0,10.6,0,10.6L96.8,44.9z"/>
			<g>
				<g>
					<path class="st1" d="M117.5,27.7h-32c-0.2,0-0.3-0.1-0.3-0.3c0-0.2,0-0.3,0.2-0.4l13.2-6.7l1.1-3.3c0-0.1,0.2-0.2,0.3-0.2h10.3
						c0.2,0,0.4,0.2,0.4,0.4c0,0.2-0.2,0.3-0.4,0.3h-10.1l-1.1,3.2c0,0.1-0.1,0.2-0.2,0.2L87,27h30.5c0.2,0,0.3,0.2,0.3,0.3
						C117.9,27.6,117.7,27.7,117.5,27.7z"/>
					<path class="st1" d="M117.5,28.5H87.6c-0.2,0-0.4-0.2-0.4-0.3v-0.8c0-0.2,0.2-0.3,0.4-0.3c0.2,0,0.3,0.2,0.3,0.3v0.5h29.5
						c0.2,0,0.3,0.2,0.3,0.4C117.9,28.4,117.7,28.5,117.5,28.5z"/>
					<path class="st1" d="M95.2,46.8c-0.2,0-0.4-0.2-0.4-0.3V28.2c0-0.2,0.2-0.4,0.4-0.4c0.2,0,0.3,0.2,0.3,0.4v18.3
						C95.5,46.7,95.4,46.8,95.2,46.8z"/>
					<path class="st1" d="M97.2,46.8c-0.2,0-0.3-0.2-0.3-0.3V28.2c0-0.2,0.2-0.4,0.3-0.4c0.2,0,0.3,0.2,0.3,0.4v18.3
						C97.5,46.7,97.3,46.8,97.2,46.8z"/>
					<path class="st1" d="M114.2,46.8c-0.2,0-0.4-0.2-0.4-0.3V28.2c0-0.2,0.2-0.4,0.4-0.4c0.2,0,0.3,0.2,0.3,0.4v18.3
						C114.6,46.7,114.4,46.8,114.2,46.8z"/>
					<path class="st1" d="M105.7,31.1c2.2,0,4,1.8,4,4v4.8h-7.9V35C101.8,32.9,103.6,31.1,105.7,31.1 M105.7,30.4
						c-2.6,0-4.7,2.1-4.7,4.7v5.5h9.3V35C110.4,32.5,108.3,30.4,105.7,30.4L105.7,30.4z"/>
					<path class="st1" d="M131.9,16.1h-23.1c-0.2,0-0.3-0.2-0.3-0.3c0-0.2,0.2-0.4,0.3-0.4h23.1c0.2,0,0.3,0.2,0.3,0.4
						C132.2,15.9,132.1,16.1,131.9,16.1z"/>
					<path class="st1" d="M115.1,24.2c-0.2,0-0.4-0.2-0.4-0.4v-4.1h-0.5c-0.2,0-0.4-0.2-0.4-0.4v-1.2H113c-0.2,0-0.4-0.2-0.4-0.3
						v-2.1c0-0.2,0.2-0.4,0.4-0.4c0.2,0,0.3,0.2,0.3,0.4v1.7h0.9c0.2,0,0.3,0.2,0.3,0.3V19h0.5c0.2,0,0.3,0.2,0.3,0.3v4.5
						C115.4,24,115.3,24.2,115.1,24.2z"/>
					<path class="st1" d="M117.5,46.8c-0.2,0-0.3-0.2-0.3-0.3V15.7c0-0.2,0.1-0.4,0.3-0.4c0.2,0,0.3,0.2,0.3,0.4v30.7
						C117.9,46.7,117.7,46.8,117.5,46.8z"/>
					<path class="st1" d="M119.4,46.8c-0.2,0-0.3-0.2-0.3-0.3V15.7c0-0.2,0.2-0.4,0.3-0.4c0.2,0,0.3,0.2,0.3,0.4v30.7
						C119.7,46.7,119.6,46.8,119.4,46.8z"/>
					<path class="st1" d="M108.1,14.5c-0.1,0-0.2-0.1-0.3-0.2c-0.1-0.2,0-0.4,0.1-0.5l23.8-13.8c0.2-0.1,0.4,0,0.5,0.1
						c0.1,0.2,0,0.4-0.1,0.5l-23.8,13.8C108.2,14.5,108.2,14.5,108.1,14.5z"/>
					<path class="st1" d="M125.1,9.4c-0.1,0-0.2,0-0.3-0.1c-0.1-0.2-0.1-0.4,0.1-0.5l6.8-5c0.2-0.1,0.4-0.1,0.5,0.1
						c0.1,0.2,0.1,0.4-0.1,0.5l-6.8,5C125.2,9.4,125.1,9.4,125.1,9.4z"/>
					<path class="st1" d="M128,9.4c-0.1,0-0.2,0-0.3-0.1c-0.1-0.1-0.1-0.4,0.1-0.5l3.9-3.1c0.1-0.1,0.4-0.1,0.5,0.1
						c0.1,0.1,0.1,0.4-0.1,0.5l-3.9,3.1C128.2,9.4,128.1,9.4,128,9.4z"/>
				</g>
				<g>
					<path class="st1" d="M178.3,27.7h-32c-0.2,0-0.3-0.2-0.3-0.3c0-0.2,0.2-0.3,0.3-0.3h30.5l-12-6.1c-0.1,0-0.1-0.1-0.2-0.2
						l-1.1-3.2h-10.1c-0.2,0-0.4-0.2-0.4-0.3c0-0.2,0.2-0.4,0.4-0.4h10.3c0.1,0,0.3,0.1,0.3,0.2l1.1,3.3l13.2,6.7
						c0.1,0.1,0.2,0.2,0.2,0.4C178.6,27.6,178.4,27.7,178.3,27.7z"/>
					<path class="st1" d="M176.2,28.5h-29.9c-0.2,0-0.3-0.2-0.3-0.3c0-0.2,0.2-0.4,0.3-0.4h29.5v-0.5c0-0.2,0.2-0.3,0.3-0.3
						c0.2,0,0.3,0.2,0.3,0.3v0.8C176.5,28.4,176.3,28.5,176.2,28.5z"/>
					<path class="st1" d="M168.6,46.8c-0.2,0-0.3-0.2-0.3-0.3V28.2c0-0.2,0.2-0.4,0.3-0.4c0.2,0,0.3,0.2,0.3,0.4v18.3
						C168.9,46.7,168.8,46.8,168.6,46.8z"/>
					<path class="st1" d="M166.6,46.8c-0.2,0-0.4-0.2-0.4-0.3V28.2c0-0.2,0.2-0.4,0.4-0.4c0.2,0,0.3,0.2,0.3,0.4v18.3
						C167,46.7,166.8,46.8,166.6,46.8z"/>
					<path class="st1" d="M149.6,46.8c-0.2,0-0.3-0.2-0.3-0.3V28.2c0-0.2,0.2-0.4,0.3-0.4c0.2,0,0.3,0.2,0.3,0.4v18.3
						C149.9,46.7,149.8,46.8,149.6,46.8z"/>
					<path class="st1" d="M158,31.1c2.2,0,4,1.8,4,4v4.8h-7.9V35C154.1,32.9,155.9,31.1,158,31.1 M158,30.4c-2.6,0-4.6,2.1-4.6,4.7
						v5.5h9.3V35C162.7,32.5,160.6,30.4,158,30.4L158,30.4z"/>
					<path class="st1" d="M155,16.1h-23.1c-0.2,0-0.3-0.2-0.3-0.3c0-0.2,0.2-0.4,0.3-0.4H155c0.2,0,0.3,0.2,0.3,0.4
						C155.4,15.9,155.2,16.1,155,16.1z"/>
					<path class="st1" d="M148.7,24.2c-0.2,0-0.4-0.2-0.4-0.4v-4.5c0-0.2,0.2-0.3,0.4-0.3h0.5v-1.2c0-0.2,0.2-0.3,0.3-0.3h0.9v-1.7
						c0-0.2,0.2-0.4,0.4-0.4c0.2,0,0.3,0.2,0.3,0.4v2.1c0,0.2-0.2,0.3-0.3,0.3h-0.9v1.2c0,0.2-0.2,0.4-0.3,0.4H149v4.1
						C149,24,148.9,24.2,148.7,24.2z"/>
					<path class="st1" d="M146.3,46.8c-0.2,0-0.3-0.2-0.3-0.3V15.7c0-0.2,0.2-0.4,0.3-0.4c0.2,0,0.4,0.2,0.4,0.4v30.7
						C146.6,46.7,146.5,46.8,146.3,46.8z"/>
					<path class="st1" d="M144.4,46.8c-0.2,0-0.3-0.2-0.3-0.3V15.7c0-0.2,0.2-0.4,0.3-0.4c0.2,0,0.4,0.2,0.4,0.4v30.7
						C144.8,46.7,144.6,46.8,144.4,46.8z"/>
					<path class="st1" d="M155.7,14.5c-0.1,0-0.1,0-0.2-0.1L131.7,0.7c-0.2-0.1-0.2-0.3-0.1-0.5c0.1-0.2,0.3-0.2,0.5-0.1l23.8,13.8
						c0.2,0.1,0.2,0.3,0.1,0.5C155.9,14.5,155.8,14.5,155.7,14.5z"/>
					<path class="st1" d="M138.7,9.4c-0.1,0-0.1,0-0.2-0.1l-6.8-5c-0.2-0.1-0.2-0.3-0.1-0.5c0.1-0.2,0.3-0.2,0.5-0.1l6.8,5
						c0.2,0.1,0.2,0.3,0.1,0.5C138.9,9.4,138.8,9.4,138.7,9.4z"/>
					<path class="st1" d="M135.8,9.4c-0.1,0-0.2,0-0.2-0.1l-3.9-3.1c-0.2-0.1-0.2-0.3-0.1-0.5c0.1-0.2,0.3-0.2,0.5-0.1l3.9,3.1
						c0.2,0.1,0.2,0.3,0.1,0.5C136,9.4,135.9,9.4,135.8,9.4z"/>
				</g>
				<path class="st1" d="M144.4,46.8c-0.2,0-0.4-0.2-0.4-0.3V32.8c0-6.7-5.5-12.2-12.2-12.2c-6.7,0-12.2,5.5-12.2,12.2v13.7
					c0,0.2-0.2,0.3-0.3,0.3c-0.2,0-0.3-0.2-0.3-0.3V32.8c0-7.1,5.8-12.9,12.9-12.9c7.1,0,12.9,5.8,12.9,12.9v13.7
					C144.8,46.7,144.6,46.8,144.4,46.8z"/>
				<path class="st1" d="M140.7,46.8c-0.2,0-0.4-0.2-0.4-0.3V32.8c0-4.7-3.8-8.5-8.5-8.5c-4.7,0-8.5,3.8-8.5,8.5v13.7
					c0,0.2-0.2,0.3-0.4,0.3c-0.2,0-0.3-0.2-0.3-0.3V32.8c0-5.1,4.1-9.2,9.2-9.2c5.1,0,9.2,4.1,9.2,9.2v13.7
					C141.1,46.7,140.9,46.8,140.7,46.8z"/>
				<path class="st1" d="M132.1,0.9c-0.1,0-0.2,0-0.2-0.1c0,0,0,0,0,0c-0.1,0.1-0.4,0.1-0.5,0c-0.1-0.1-0.1-0.4,0-0.5
					c0,0,0,0,0.1-0.1c-0.5-0.9-0.3-1.5-0.2-1.7c0.1-0.3,0.4-0.5,0.7-0.5c0,0,0,0,0,0c0.3,0,0.6,0.2,0.7,0.6c0.3,0.6,0,1.2-0.3,1.7
					c0,0,0,0,0,0c0.1,0.2,0.1,0.4,0,0.5C132.3,0.9,132.2,0.9,132.1,0.9z M132-1.3c0,0-0.1,0.1-0.1,0.2c-0.1,0.2,0,0.4,0.1,0.7
					c0.1-0.2,0.2-0.5,0.1-0.8C132-1.2,132-1.3,132-1.3z"/>
			</g>
		</g>
	</g>
	<g>
		<defs>
			<path id="SVGID_3_" d="M146.9,68.5c-4.7,0-9-1-12.7-3c-3.7-2-6.6-4.9-8.6-8.6c-2-3.7-3.1-7.9-3.1-12.7c0-0.2,0-0.4,0-0.7H97.7
				c0,0.2,0,0.5,0,0.7c0,8.5,2.1,16.1,6.2,22.8c4.2,6.7,9.9,12,17.1,15.7c7.3,3.8,15.5,5.6,24.6,5.6c8,0,15.2-1.4,21.6-4.1
				c6.4-2.8,11.7-6.7,16-11.9l-15.7-13.8C161.8,65.2,155,68.5,146.9,68.5z"/>
		</defs>
		<use xlink:href="#SVGID_3_"  style="overflow:visible;fill:#94D4F4;"/>
		<clipPath id="SVGID_4_">
			<use xlink:href="#SVGID_3_"  style="overflow:visible;"/>
		</clipPath>
		<g class="st4">
			<g>
				<g>
					<path class="st5" d="M120.6,83.8c-0.1-4.4,0.2-8.7,1.1-13c1-5,2.7-9.7,5.1-14.1c0.3-0.5,0.6-1.1,0.9-1.6
						c-1.8,1.3-3.6,2.4-5.7,3.4c-0.1-0.5-0.1-1-0.2-1.5c0,0-0.1,0-0.1,0c-0.3,0.8-0.6,1.6-0.9,2.5c0,0-0.1,0-0.1,0
						c0-0.7,0-1.4-0.1-2.1c0,0-0.1,0-0.1,0c-0.3,0.9-0.5,1.9-0.8,2.9c-0.2-0.9-0.4-1.6-0.6-2.4c-0.3,0.9-0.6,1.8-0.9,2.7
						c-0.1,0.2-0.2,0.3-0.4,0.5c0,0-0.1-0.1-0.1-0.1c0-0.7,0.1-1.3,0.1-2c-0.2,0.2-0.3,0.5-0.4,0.7c-0.2,0.4-0.3,0.9-0.6,1.1
						c-0.7,0.6-1.5,1-2.3,1.5c0.4-1,0.8-1.9,1.2-2.8c0.6-1.4,1.3-2.8,2.3-3.9c1.9-2,4.1-3.5,6.7-4.4c0.1,0,0.2-0.1,0.4-0.2
						c-1.2-0.2-2.4-0.4-3.6-0.6c0.3-0.4,0.5-0.7,0.7-1.1c-0.3,0.1-0.5,0.2-0.7,0.3c-0.2,0.1-0.4,0.3-0.6,0.4
						c-0.2,0.1-0.4,0.1-0.6,0.2c0,0,0-0.1,0-0.1c0.3-0.4,0.6-0.7,0.9-1.1c-0.8,0.2-1.3,1.1-2.2,1c0.3-0.5,0.5-1,0.7-1.4
						c-0.4,0.2-0.8,0.4-1.2,0.7c-0.4,0.2-0.7,0.6-1.2,0.3c0.3-0.3,0.5-0.6,0.8-0.8c-0.2,0-0.4,0.1-0.6,0.2c-0.4,0.2-0.8,0.5-1.2,0.5
						c-0.8,0-1.6-0.2-2.6-0.3c0.4-0.3,0.7-0.6,1.1-0.8c0.6-0.3,1.3-0.6,1.9-0.8c1.3-0.3,2.6-0.7,3.9-0.9c1.9-0.2,3.4,0.7,5,1.7
						c0.5,0.3,0.9,0.6,1.5,1c-0.9-1.1-1.7-2.2-2.6-3.3c0.4-0.1,0.8-0.2,1.2-0.3c-0.7-0.2-1.2-0.4-1.8-0.5c0-0.1,0-0.1,0-0.2
						c0.4-0.1,0.8-0.1,1.2-0.2c-0.3-0.1-0.6-0.2-0.9-0.3c-0.3-0.1-0.7,0-0.8-0.4c0.4-0.1,0.8-0.3,1.2-0.4c-0.7-0.4-1.6-0.1-2.2-0.8
						c0.4,0,0.7-0.1,1-0.1c0,0,0-0.1,0.1-0.1c-1.5,0-2.1-1.2-3-2.2c0.5,0.1,0.8,0,1.1,0.1c0.6,0.2,1.2,0.4,1.7,0.6
						c0.9,0.5,1.8,1,2.6,1.5c1.7,1.1,2.1,2.8,2.5,4.6c0.2,0.9,0.4,1.7,0.6,2.6c0.3-0.2,0.6-0.3,0.8-0.5c0.9-0.7,1.9-1.4,2.8-2.2
						c2-1.6,4.1-2.7,6.8-2.1c1.6,0.4,3.3,0.7,4.8,1.5c0.5,0.2,0.9,0.6,1.4,1c-0.9,0.2-1.7,0.3-2.5,0.4c-0.3,0-0.6,0-0.8-0.1
						c-0.5-0.2-1-0.4-1.5-0.6c0,0,0,0.1-0.1,0.1c0.5,0.5,1,1,1.5,1.5c0,0.1-0.1,0.1-0.1,0.2c-0.2-0.1-0.5-0.1-0.7-0.2
						c-0.8-0.5-1.6-1-2.4-1.6c0,0-0.1,0.1-0.1,0.1c0.4,0.7,0.7,1.4,1.1,2.2c-1-0.6-1.9-1.2-2.7-1.8c0,0,0,0,0,0.1
						c0.5,0.6,1,1.2,1.5,1.8c0,0,0,0,0,0c-0.8-0.4-1.7-0.9-2.5-1.4c0,0,0,0-0.1,0.1c0.3,0.4,0.5,0.8,0.9,1.2
						c-1.2,0.3-2.4,0.6-3.5,0.9c0,0,0,0.1,0,0.1c0.1,0.1,0.2,0.1,0.4,0.2c3.1,1.6,5.6,3.7,7.3,6.7c0.8,1.5,1.2,3.2,1.7,4.8
						c0.2,0.5,0.3,0.9,0.4,1.4c-0.6-0.5-1.2-1-1.9-1.5c-0.3-0.2-0.5-0.5-0.6-0.9c-0.1-0.5-0.3-1-0.5-1.5c0,0,0,0-0.1,0
						c0,0.7-0.1,1.4-0.1,2.1c0,0-0.1,0.1-0.1,0.1c-0.1-0.2-0.3-0.4-0.3-0.6c-0.2-1-0.3-2-0.5-3c0,0-0.1,0-0.1,0
						c-0.3,0.8-0.6,1.5-0.8,2.3c0,0-0.1,0-0.1,0c-0.2-1-0.3-2-0.5-3c0,0-0.1,0-0.1,0c-0.1,0.7-0.2,1.5-0.3,2.3c0,0-0.1,0-0.1,0
						c-0.2-0.9-0.5-1.8-0.7-2.8c0,0-0.1,0-0.1,0c-0.1,0.5-0.2,1-0.4,1.6c-0.8-0.5-1.5-1-2.4-1.6c0.7,1.8,0.3,3.5,0,5.1
						c-0.3,1.7-0.7,3.3-2,4.7c-0.2-0.9-0.3-1.6-0.5-2.4c0-0.3,0-0.6,0.1-0.8c0.2-0.5,0.4-1,0.6-1.5c0,0-0.1,0-0.1,0
						c-0.5,0.5-1,1-1.5,1.6c-0.1,0-0.1,0-0.2-0.1c0.1-0.2,0.1-0.5,0.2-0.6c0.5-0.9,1-1.7,1.5-2.5c0,0,0,0-0.1,0
						c-0.7,0.4-1.4,0.8-2.1,1.2c0,0,0,0-0.1-0.1c0.5-0.9,1.1-1.8,1.6-2.6c0,0-0.1-0.1-0.1-0.1c-0.5,0.5-1.1,1.1-1.6,1.6
						c0,0-0.1-0.1-0.1-0.1c0.4-0.8,0.9-1.6,1.3-2.5c0,0-0.1,0-0.1-0.1c-0.4,0.3-0.8,0.6-1.2,0.9c-0.3-1.3-0.7-2.6-1-3.9
						c-0.1,0.2-0.1,0.2-0.1,0.3c-0.7,2.1-1.5,4.3-2.2,6.4c-1.4,4.4-2.3,8.8-2.7,13.4c-0.3,4.1,0,8.1,0.8,12
						c-1.2,0.1-2.5,0.2-3.7,0.2C120.7,86.1,120.6,85,120.6,83.8z"/>
				</g>
			</g>
			<g>
				<path class="st5" d="M121.6,86.1c0.1-3.7-0.2-7.3-0.9-10.9c-0.8-4.2-2.3-8.1-4.3-11.9c-0.2-0.5-0.5-0.9-0.7-1.4
					c1.5,1.1,3.1,2.1,4.8,2.9c0.1-0.5,0.1-0.9,0.1-1.3c0,0,0,0,0.1,0c0.3,0.7,0.5,1.4,0.8,2.1c0,0,0,0,0.1,0c0-0.6,0-1.2,0.1-1.8
					c0,0,0,0,0.1,0c0.2,0.8,0.5,1.6,0.7,2.5c0.2-0.7,0.3-1.4,0.5-2c0.3,0.8,0.5,1.5,0.7,2.3c0,0.2,0.2,0.3,0.3,0.4c0,0,0,0,0.1-0.1
					c0-0.6-0.1-1.1-0.1-1.7c0.1,0.2,0.2,0.4,0.3,0.6c0.2,0.3,0.2,0.7,0.5,0.9c0.6,0.5,1.3,0.8,2,1.2c-0.3-0.8-0.7-1.6-1-2.3
					c-0.5-1.2-1.1-2.4-2-3.3c-1.6-1.7-3.4-3-5.6-3.7c-0.1,0-0.2-0.1-0.3-0.1c1-0.2,2-0.3,3-0.5c-0.2-0.3-0.4-0.6-0.6-0.9
					c0.2,0,0.4,0.1,0.6,0.2c0.2,0.1,0.3,0.2,0.5,0.3c0.2,0.1,0.3,0.1,0.5,0.2c0,0,0-0.1,0-0.1c-0.2-0.3-0.5-0.6-0.8-0.9
					c0.7,0.2,1.1,0.9,1.8,0.8c-0.2-0.4-0.4-0.8-0.6-1.2c0.4,0.2,0.7,0.4,1,0.6c0.3,0.2,0.6,0.5,1,0.2c-0.2-0.3-0.5-0.5-0.7-0.7
					c0.2,0,0.3,0.1,0.5,0.2c0.3,0.1,0.7,0.4,1,0.4c0.7,0,1.4-0.1,2.2-0.2c-0.4-0.3-0.6-0.5-0.9-0.7c-0.5-0.3-1.1-0.5-1.6-0.7
					c-1.1-0.3-2.1-0.6-3.2-0.7c-1.6-0.2-2.9,0.5-4.2,1.4c-0.4,0.3-0.8,0.5-1.2,0.8c0.8-1,1.4-1.8,2.1-2.7c-0.4-0.1-0.6-0.2-1-0.2
					c0.6-0.2,1-0.3,1.5-0.4c0-0.1,0-0.1,0-0.1c-0.3-0.1-0.6-0.1-1-0.1c0.3-0.1,0.5-0.2,0.8-0.2c0.3-0.1,0.6,0,0.7-0.4
					c-0.3-0.1-0.7-0.2-1-0.4c0.6-0.3,1.3,0,1.8-0.7c-0.3,0-0.6,0-0.9-0.1c0,0,0-0.1-0.1-0.1c1.3,0,1.8-1,2.5-1.9c-0.4,0-0.7,0-1,0.1
					c-0.5,0.1-1,0.3-1.5,0.5c-0.8,0.4-1.5,0.8-2.2,1.3c-1.4,0.9-1.8,2.4-2.1,3.9c-0.2,0.7-0.3,1.4-0.5,2.2c-0.3-0.2-0.5-0.3-0.7-0.4
					c-0.8-0.6-1.6-1.2-2.3-1.8c-1.7-1.4-3.4-2.2-5.7-1.7c-1.4,0.3-2.8,0.6-4,1.3c-0.4,0.2-0.7,0.5-1.2,0.8c0.8,0.1,1.4,0.3,2.1,0.4
					c0.2,0,0.5,0,0.7-0.1c0.4-0.2,0.8-0.4,1.2-0.5c0,0,0,0,0,0.1c-0.4,0.4-0.8,0.8-1.3,1.3c0,0,0,0.1,0.1,0.1
					c0.2-0.1,0.4-0.1,0.5-0.2c0.7-0.4,1.3-0.9,2-1.3c0,0,0,0.1,0.1,0.1c-0.3,0.6-0.6,1.2-1,1.9c0.8-0.5,1.6-1,2.3-1.5c0,0,0,0,0,0
					c-0.4,0.5-0.8,1-1.2,1.5c0,0,0,0,0,0c0.7-0.4,1.4-0.8,2.1-1.2c0,0,0,0,0,0.1c-0.2,0.3-0.5,0.7-0.7,1c1,0.3,2,0.5,3,0.7
					c0,0,0,0.1,0,0.1c-0.1,0-0.2,0.1-0.3,0.1c-2.6,1.3-4.7,3.1-6.1,5.6c-0.7,1.2-1,2.7-1.5,4c-0.1,0.4-0.2,0.8-0.4,1.2
					c0.5-0.5,1-0.9,1.6-1.3c0.3-0.2,0.4-0.4,0.5-0.7c0.1-0.4,0.3-0.8,0.4-1.3c0,0,0,0,0.1,0c0,0.6,0.1,1.2,0.1,1.8
					c0,0,0.1,0,0.1,0.1c0.1-0.2,0.2-0.3,0.3-0.5c0.2-0.8,0.3-1.7,0.4-2.5c0,0,0,0,0.1,0c0.2,0.6,0.5,1.3,0.7,1.9c0,0,0,0,0.1,0
					c0.1-0.8,0.3-1.7,0.4-2.5c0,0,0.1,0,0.1,0c0.1,0.6,0.2,1.3,0.3,1.9c0,0,0.1,0,0.1,0c0.2-0.8,0.4-1.5,0.6-2.3c0,0,0,0,0.1,0
					c0.1,0.4,0.2,0.9,0.3,1.3c0.7-0.5,1.3-0.9,2-1.4c-0.6,1.5-0.3,2.9,0,4.3c0.3,1.4,0.6,2.8,1.7,3.9c0.1-0.7,0.3-1.3,0.4-2
					c0-0.2,0-0.5,0-0.7c-0.1-0.4-0.3-0.9-0.5-1.3c0,0,0,0,0.1,0c0.4,0.4,0.8,0.9,1.2,1.3c0,0,0.1,0,0.1-0.1c0-0.2-0.1-0.4-0.1-0.5
					c-0.4-0.7-0.9-1.4-1.3-2.1c0,0,0,0,0.1,0c0.6,0.3,1.2,0.7,1.8,1c0,0,0,0,0-0.1c-0.5-0.7-0.9-1.5-1.3-2.2c0,0,0.1-0.1,0.1-0.1
					c0.4,0.5,0.9,0.9,1.3,1.4c0,0,0.1-0.1,0.1-0.1c-0.4-0.7-0.7-1.4-1.1-2.1c0,0,0,0,0.1,0c0.3,0.2,0.6,0.5,1,0.7
					c0.3-1.1,0.6-2.2,0.9-3.3c0.1,0.1,0.1,0.2,0.1,0.3c0.6,1.8,1.3,3.6,1.8,5.4c1.2,3.7,2,7.4,2.2,11.3c0.2,3.4,0,6.8-0.7,10.1
					c1,0.1,2.1,0.1,3.1,0.2C121.5,88.1,121.6,87.1,121.6,86.1z"/>
			</g>
			<g>
				<g>
					<path class="st1" d="M127.3,91.5v-10h2v-2.2l0.3-0.3v-2.6v-0.9v-2.2l-0.7-0.7l-0.9-2.1c0,0,0.4-0.4,1.9-0.5
						c1.5-0.1,2.3,0.7,2.3,0.7l-0.9,1.9l-0.8,0.6l-0.2,2.2l0.2,0.5v2.9l-0.2,0.9v1.9h1.7v10.1H127.3z"/>
					<path class="st1" d="M162.2,91.5v-10h-2v-2.2l-0.3-0.3v-2.6v-0.9v-2.2l0.7-0.7l0.9-2.1c0,0-0.4-0.4-1.9-0.5
						c-1.5-0.1-2.3,0.7-2.3,0.7l0.9,1.9l0.8,0.6l0.2,2.2l-0.2,0.5v2.9l0.2,0.9v1.9h-1.7v10.1H162.2z"/>
					<path class="st1" d="M149.6,86.3v-4.4h0.9v-1l0.1-0.1v-1.2v-0.4v-1l-0.3-0.3l-0.4-0.9c0,0,0.2-0.2,0.9-0.2c0.7-0.1,1,0.3,1,0.3
						l-0.4,0.9l-0.3,0.2l-0.1,1l0.1,0.2v1.3L151,81v0.8h0.8v4.5H149.6z"/>
					<path class="st1" d="M122.2,75.9v1l0.4,0.4v3.2v0.8h-0.4l-0.6,0.6v0.9V86l0.8,1h1.1v-1l0.3-0.3v-4.3h-0.7v-4.1
						c0,0,0.6-1.1,0.7-1.4v-0.3h-1.5L122.2,75.9z"/>
					<path class="st1" d="M152.3,75.9v1l0.4,0.4v3.2v0.8h-0.4l-0.6,0.6v0.9v3.2l0.8,1h1.1v-1l0.3-0.3v-4.3h-0.7v-4.1
						c0,0,0.6-1.1,0.7-1.4v-0.3h-1.5L152.3,75.9z"/>
					<path class="st1" d="M141.1,79.8v0.5l0.2,0.2v1.8v0.5h-0.2l-0.3,0.3v0.5v1.7l0.4,0.6h0.6v-0.5l0.2-0.2v-2.3h-0.4v-2.3
						c0,0,0.3-0.6,0.4-0.8v-0.1h-0.8L141.1,79.8z"/>
					<polygon class="st1" points="136,75.3 138.4,75.3 138.1,75.9 137.8,76.8 137.7,77.1 137.7,79.4 137.5,80.3 137.5,81.3 
						138.8,81.3 138.8,86.1 138.8,87.3 135.7,87.3 135.7,81.3 136.9,81.3 136.9,79.6 137,78.8 137,76.8 					"/>
					<polygon class="st1" points="148.1,78.6 149.3,78.6 149.2,78.9 149,79.4 149,79.6 149,80.9 148.8,81.4 148.8,81.9 149.6,81.9 
						149.6,84.5 149.6,85.2 147.9,85.2 147.9,81.9 148.5,81.9 148.5,81 148.6,80.5 148.6,79.5 					"/>
				</g>
			</g>
		</g>
	</g>
</g>
</svg>
